<?xml version="1.0" encoding="UTF-8"?>
<svg width="67px" height="30px" viewBox="0 0 67 30" version="1.1" xmlns="http://www.w3.org/2000/svg" xmlns:xlink="http://www.w3.org/1999/xlink">
    <!-- Generator: Sketch 54.1 (76490) - https://sketchapp.com -->
    <title>ACC</title>
    <desc>Created with Sketch.</desc>
    <g id="Page-1" stroke="none" stroke-width="1" fill="none" fill-rule="evenodd">
        <g id="TOP-NAVIGATION" transform="translate(-50.000000, -44.000000)" fill="#FFFFFF">
            <g id="ACC" transform="translate(50.000000, 44.000000)">
                <path d="M6.76357231,0 L0,30 L4.33975691,30 L5.61536023,23.553103 L11.5277788,23.553103 L12.8045094,30 L17.1428571,30 L10.3792848,0 L6.76357231,0 Z M8.52953729,8.57142857 L8.61331985,8.57142857 L10.7142857,19.2857143 L6.42857143,19.2857143 L8.52953729,8.57142857 Z" id="Fill-1"></path>
                <path d="M40.7142857,23.1629618 C40.7142857,26.8105902 37.947549,30 34.4022642,30 C31.3637068,30 27.8571429,28.4265725 27.8571429,23.0402394 L27.8571429,6.79667981 C27.8571429,2.94341591 30.4671891,0 34.3245642,0 C37.9873024,0 40.7142857,2.94341591 40.7142857,7.044321 L40.7142857,8.70203439 L36.7404897,8.70203439 L36.7404897,7.29360947 C36.7404897,5.63562153 35.804993,4.22692206 34.2858434,4.22692206 C32.2984291,4.22692206 31.831197,5.67762718 31.831197,7.66589489 L31.831197,22.7486707 C31.831197,24.4486643 32.4543452,25.7747252 34.2468643,25.7747252 C35.3375028,25.7747252 36.7404897,25.1108711 36.7404897,22.7909509 L36.7404897,21.3399713 L40.7142857,21.3399713 L40.7142857,23.1629618 Z" id="Fill-2"></path>
                <path d="M57.5453044,22.7486707 C57.5453044,24.4483898 58.1687232,25.7744507 59.9610202,25.7744507 C61.0519387,25.7744507 62.4546956,25.1108711 62.4546956,22.7906764 L62.4546956,21.3399713 L66.4285714,21.3399713 L66.4285714,23.1629618 C66.4285714,26.8105902 63.6617791,30 60.1164232,30 C57.0780629,30 53.5714286,28.4265725 53.5714286,23.0402394 L53.5714286,6.79640527 C53.5714286,2.94314136 56.181269,0 60.0387217,0 C63.7015334,0 66.4285714,2.94314136 66.4285714,7.04404645 L66.4285714,8.70203439 L62.4546956,8.70203439 L62.4546956,7.29333492 C62.4546956,5.63562153 61.5191801,4.22692206 60,4.22692206 C58.0125458,4.22692206 57.5453044,5.67762718 57.5453044,7.66562034 L57.5453044,22.7486707 Z" id="Fill-4"></path>
            </g>
        </g>
    </g>
</svg>