<?xml version="1.0" encoding="UTF-8"?>
<svg width="468px" height="239px" viewBox="0 0 468 239" version="1.1" xmlns="http://www.w3.org/2000/svg" xmlns:xlink="http://www.w3.org/1999/xlink">
    <!-- Generator: Sketch 54.1 (76490) - https://sketchapp.com -->
    <title>logo/black</title>
    <desc>Created with Sketch.</desc>
    <g id="Page-1" stroke="none" stroke-width="1" fill="none" fill-rule="evenodd">
        <g id="Desktop-HD" transform="translate(-80.000000, -80.000000)" fill="#000000">
            <g id="logo/black" transform="translate(80.000000, 80.000000)">
                <g id="logo">
                    <g id="Group" transform="translate(1.000000, 0.000000)" fill-rule="nonzero">
                        <path d="M10.39,0 L15.94,0 L26.33,46.53 L19.66,46.53 L17.7,36.53 L8.63,36.53 L6.67,46.53 L0,46.53 L10.39,0 Z M13.2,13.4 L13.07,13.4 L9.8,30.26 L16.47,30.26 L13.2,13.4 Z" id="Shape"></path>
                        <polygon id="Path" points="44.47 0 51.14 0 51.14 39.86 64.34 39.86 64.34 46.53 44.47 46.53"></polygon>
                        <polygon id="Path" points="96.64 6.27 88.93 6.27 88.93 0 111.02 0 111.02 6.27 103.31 6.27 103.31 46.52 96.64 46.52 96.64 6.27"></polygon>
                    </g>
                    <g id="Group" transform="translate(134.000000, 0.000000)" fill-rule="nonzero" opacity="0.2">
                        <polygon id="Path" points="0.4 0 20.27 0 20.27 6.27 7.07 6.27 7.07 19.93 18.57 19.93 18.57 26.2 7.07 26.2 7.07 39.86 20.27 39.86 20.27 46.53 0.4 46.53"></polygon>
                        <path d="M44.86,0 L55.58,0 C63.49,0 67.34,4.64 67.34,13.66 C67.34,19.02 65.84,22.94 61.59,25.29 L68.78,46.53 L61.72,46.53 L55.51,26.66 L51.52,26.66 L51.52,46.53 L44.85,46.53 L44.85,0 L44.86,0 Z M51.53,20.78 L55.32,20.78 C59.96,20.78 60.68,18.17 60.68,13.53 C60.68,8.82 59.9,6.28 55,6.28 L51.54,6.28 L51.54,20.78 L51.53,20.78 Z" id="Shape"></path>
                        <polygon id="Path" points="89.33 0 95.73 0 105.79 28.03 105.92 28.03 105.92 0 112.59 0 112.59 46.53 106.32 46.53 96.13 18.56 96 18.56 96 46.53 89.33 46.53"></polygon>
                        <path d="M144.19,0 L149.74,0 L160.13,46.53 L153.46,46.53 L151.5,36.53 L142.42,36.53 L140.46,46.53 L133.79,46.53 L144.19,0 Z M146.99,13.4 L146.86,13.4 L143.59,30.26 L150.26,30.26 L146.99,13.4 Z" id="Shape"></path>
                        <polygon id="Path" points="185.97 6.27 178.26 6.27 178.26 0 200.35 0 200.35 6.27 192.64 6.27 192.64 46.52 185.97 46.52"></polygon>
                        <polygon id="Path" points="230.57 0 237.24 0 237.24 46.53 230.57 46.53"></polygon>
                        <polygon id="Path" points="279.22 46.53 273.34 46.53 263.86 0 270.92 0 276.21 32.48 276.34 32.48 281.7 0 288.76 0"></polygon>
                        <polygon id="Path" points="313.36 0 333.23 0 333.23 6.27 320.03 6.27 320.03 19.93 331.53 19.93 331.53 26.2 320.03 26.2 320.03 39.86 333.23 39.86 333.23 46.53 313.36 46.53"></polygon>
                    </g>
                    <path d="M65.33,131.5 C65.33,137.25 60.69,142.28 54.74,142.28 C49.64,142.28 43.76,139.8 43.76,131.3 L43.76,105.68 C43.76,99.6 48.14,94.96 54.61,94.96 C60.75,94.96 65.33,99.6 65.33,106.07 L65.33,108.68 L58.66,108.68 L58.66,106.46 C58.66,103.85 57.09,101.62 54.54,101.62 C51.21,101.62 50.42,103.91 50.42,107.04 L50.42,130.83 C50.42,133.51 51.47,135.6 54.47,135.6 C56.3,135.6 58.65,134.55 58.65,130.89 L58.65,128.6 L65.32,128.6 L65.32,131.5 L65.33,131.5 Z" id="Path" fill-rule="nonzero"></path>
                    <path d="M89.67,106.34 C89.67,98.76 95.42,94.97 100.84,94.97 C106.26,94.97 112.01,98.76 112.01,106.34 L112.01,130.91 C112.01,138.49 106.26,142.28 100.84,142.28 C95.42,142.28 89.67,138.49 89.67,130.91 L89.67,106.34 Z M96.34,130.91 C96.34,134.11 98.43,135.62 100.85,135.62 C103.27,135.62 105.36,134.12 105.36,130.91 L105.36,106.34 C105.36,103.14 103.27,101.63 100.85,101.63 C98.43,101.63 96.34,103.13 96.34,106.34 L96.34,130.91 Z" id="Shape" fill-rule="nonzero"></path>
                    <g id="Group" transform="translate(134.000000, 94.000000)" fill-rule="nonzero" opacity="0.2">
                        <polygon id="Path" points="0.4 1.36 7.07 1.36 7.07 41.22 20.27 41.22 20.27 47.89 0.4 47.89"></polygon>
                        <polygon id="Path" points="48.92 1.36 55.59 1.36 55.59 41.22 68.79 41.22 68.79 47.89 48.92 47.89 48.92 1.36"></polygon>
                        <polygon id="Path" points="92.73 1.36 112.6 1.36 112.6 7.63 99.4 7.63 99.4 21.29 110.9 21.29 110.9 27.56 99.4 27.56 99.4 41.22 112.6 41.22 112.6 47.89 92.73 47.89"></polygon>
                        <path d="M157.52,37.5 C157.52,43.25 152.88,48.28 146.93,48.28 C141.83,48.28 135.95,45.8 135.95,37.3 L135.95,11.68 C135.95,5.6 140.33,0.96 146.8,0.96 C152.94,0.96 157.52,5.6 157.52,12.07 L157.52,14.68 L150.85,14.68 L150.85,12.46 C150.85,9.85 149.28,7.62 146.73,7.62 C143.4,7.62 142.61,9.91 142.61,13.04 L142.61,36.83 C142.61,39.51 143.66,41.6 146.66,41.6 C148.49,41.6 150.84,40.55 150.84,36.89 L150.84,34.6 L157.51,34.6 L157.51,37.5 L157.52,37.5 Z" id="Path"></path>
                        <polygon id="Path" points="185.97 7.64 178.26 7.64 178.26 1.37 200.35 1.37 200.35 7.64 192.64 7.64 192.64 47.89 185.97 47.89"></polygon>
                        <polygon id="Path" points="230.57 1.36 237.24 1.36 237.24 47.89 230.57 47.89"></polygon>
                        <path d="M266.41,12.34 C266.41,4.76 272.16,0.97 277.58,0.97 C283,0.97 288.75,4.76 288.75,12.34 L288.75,36.91 C288.75,44.49 283,48.28 277.58,48.28 C272.16,48.28 266.41,44.49 266.41,36.91 L266.41,12.34 Z M273.07,36.91 C273.07,40.11 275.16,41.62 277.58,41.62 C280,41.62 282.09,40.12 282.09,36.91 L282.09,12.34 C282.09,9.14 280,7.63 277.58,7.63 C275.16,7.63 273.07,9.13 273.07,12.34 L273.07,36.91 Z" id="Shape"></path>
                        <polygon id="Path" points="309.96 1.36 316.36 1.36 326.42 29.39 326.55 29.39 326.55 1.36 333.22 1.36 333.22 47.89 326.95 47.89 316.76 19.92 316.63 19.92 316.63 47.89 309.96 47.89"></polygon>
                    </g>
                    <g id="Group" transform="translate(0.000000, 179.000000)" fill-rule="nonzero">
                        <path d="M22.56,47.86 C22.56,53.61 17.92,58.64 11.97,58.64 C6.87,58.64 0.99,56.16 0.99,47.66 L0.99,22.04 C0.99,15.96 5.37,11.32 11.84,11.32 C17.98,11.32 22.56,15.96 22.56,22.43 L22.56,25.04 L15.9,25.04 L15.9,22.82 C15.9,20.21 14.33,17.98 11.78,17.98 C8.45,17.98 7.66,20.27 7.66,23.4 L7.66,47.19 C7.66,49.87 8.71,51.96 11.71,51.96 C13.54,51.96 15.89,50.91 15.89,47.25 L15.89,44.96 L22.56,44.96 L22.56,47.86 Z" id="Path"></path>
                        <polygon id="Path" points="45.47 11.72 52.14 11.72 52.14 51.58 65.34 51.58 65.34 58.25 45.47 58.25"></polygon>
                        <polygon id="Path" points="97.51 11.72 104.18 11.72 104.18 58.25 97.51 58.25"></polygon>
                        <path d="M134.4,22.7 C134.4,15.12 140.15,11.33 145.57,11.33 C150.99,11.33 156.74,15.12 156.74,22.7 L156.74,47.27 C156.74,49.1 156.41,50.67 155.76,52.04 L159.88,55.37 L156.48,59.42 L152.56,56.22 C150.53,57.85 148.05,58.64 145.57,58.64 C140.15,58.64 134.4,54.85 134.4,47.27 L134.4,22.7 Z M141.06,47.27 C141.06,50.47 143.15,51.98 145.57,51.98 C146.09,51.98 146.55,51.91 147.01,51.72 L144,49.3 L147.4,45.25 L150.08,47.4 L150.08,47.27 L150.08,22.7 C150.08,19.5 147.99,17.99 145.57,17.99 C143.15,17.99 141.06,19.49 141.06,22.7 L141.06,47.27 L141.06,47.27 Z" id="Shape"></path>
                        <path d="M204.48,47.8 C204.48,53.88 199.64,58.65 193.7,58.65 C187.76,58.65 182.92,53.88 182.92,47.8 L182.92,11.73 L189.59,11.73 L189.59,47.15 C189.59,50.42 191.35,51.99 193.71,51.99 C196.07,51.99 197.83,50.42 197.83,47.15 L197.83,11.73 L204.5,11.73 L204.5,47.8 L204.48,47.8 Z" id="Path"></path>
                        <path d="M226.73,11.72 L246.6,11.72 L246.6,18 L233.4,18 L233.4,31.66 L244.9,31.66 L244.9,37.93 L233.4,37.93 L233.4,51.59 L246.6,51.59 L246.6,58.26 L226.73,58.26 L226.73,11.72 Z M237.97,0.42 L245.03,0.42 L236.4,9.63 L232.09,9.63 L237.97,0.42 Z" id="Shape"></path>
                    </g>
                    <rect id="Rectangle" fill-rule="nonzero" x="134.4" y="19.85" width="331.13" height="6.38"></rect>
                    <rect id="Rectangle" fill-rule="nonzero" x="134.4" y="115.22" width="332.83" height="6.38"></rect>
                    <rect id="Rectangle" fill-rule="nonzero" x="269.1" y="211.19" width="198.13" height="6.38"></rect>
                </g>
            </g>
        </g>
    </g>
</svg>