<?xml version="1.0" encoding="UTF-8"?>
<svg width="390px" height="199px" viewBox="0 0 390 199" version="1.1" xmlns="http://www.w3.org/2000/svg" xmlns:xlink="http://www.w3.org/1999/xlink">
    <!-- Generator: Sketch 54.1 (76490) - https://sketchapp.com -->
    <title>logo/black</title>
    <desc>Created with Sketch.</desc>
    <g id="Page-1" stroke="none" stroke-width="1" fill="none" fill-rule="evenodd">
        <g id="Home-Copy" transform="translate(-927.000000, -218.000000)" fill="#FFFFFF">
            <g id="logo/white" transform="translate(927.000000, 218.000000)">
                <g id="logo_white">
                    <g id="Group" fill-rule="nonzero">
                        <path d="M8.68522484,0 L13.3618844,0 L22.0471092,38.7175732 L16.4518201,38.7175732 L14.7815846,30.3912134 L7.18201285,30.3912134 L5.5117773,38.7175732 L0,38.7175732 L8.68522484,0 Z M11.0235546,11.1573222 L10.9400428,11.1573222 L8.18415418,25.2288703 L13.7794433,25.2288703 L11.0235546,11.1573222 Z" id="Shape"></path>
                        <polygon id="Path" points="37.1627409 0 42.75803 0 42.75803 33.2221757 53.7815846 33.2221757 53.7815846 38.8008368 37.1627409 38.8008368"></polygon>
                        <path d="M80.6723769,5.24560669 L74.24197,5.24560669 L74.24197,0 L92.6980728,0 L92.6980728,5.24560669 L86.267666,5.24560669 L86.267666,38.7175732 L80.6723769,38.7175732 C80.6723769,38.7175732 80.6723769,5.24560669 80.6723769,5.24560669 Z" id="Path"></path>
                    </g>
                    <g id="Group" transform="translate(111.070664, 0.000000)" fill-rule="nonzero" opacity="0.2">
                        <polygon id="Path" points="0.334047109 0 16.9528908 0 16.9528908 5.24560669 5.92933619 5.24560669 5.92933619 16.6527197 15.5331906 16.6527197 15.5331906 21.8983264 5.92933619 21.8983264 5.92933619 33.3054393 16.9528908 33.3054393 16.9528908 38.8841004 0.334047109 38.8841004"></polygon>
                        <path d="M37.496788,0 L46.4325482,0 C53.0299786,0 56.2869379,3.83012552 56.2869379,11.407113 C56.2869379,15.9033473 55.0342612,19.1506276 51.4432548,21.0656904 L57.4561028,38.7175732 L51.5267666,38.7175732 L46.3490364,22.1481172 L43.0085653,22.1481172 L43.0085653,38.7175732 L37.4132762,38.7175732 L37.496788,0 L37.496788,0 Z M43.0085653,17.3188285 L46.1820128,17.3188285 C50.0235546,17.3188285 50.6916488,15.1539749 50.6916488,11.3238494 C50.6916488,7.41046025 50.0235546,5.32887029 45.9314775,5.32887029 L43.0085653,5.32887029 L43.0085653,17.3188285 L43.0085653,17.3188285 Z" id="Shape"></path>
                        <polygon id="Path" points="74.5760171 0 79.9207709 0 88.3554604 23.3138075 88.4389722 23.3138075 88.4389722 0 94.0342612 0 94.0342612 38.7175732 88.7730193 38.7175732 80.254818 15.4037657 80.1713062 15.4037657 80.1713062 38.7175732 74.5760171 38.7175732"></polygon>
                        <path d="M120.423983,0 L125.017131,0 L133.702355,38.7175732 L128.107066,38.7175732 L126.436831,30.3912134 L118.837259,30.3912134 L117.167024,38.7175732 L111.571734,38.7175732 L120.423983,0 Z M122.762313,11.1573222 L122.678801,11.1573222 L119.922912,25.2288703 L125.518201,25.2288703 L122.762313,11.1573222 Z" id="Shape"></path>
                        <polygon id="Path" points="155.331906 5.24560669 148.901499 5.24560669 148.901499 0 167.357602 0 167.357602 5.24560669 160.927195 5.24560669 160.927195 38.7175732 155.331906 38.7175732"></polygon>
                        <polygon id="Path" points="192.578158 0 198.173448 0 198.173448 38.7175732 192.578158 38.7175732"></polygon>
                        <polygon id="Path" points="233.164882 38.7175732 228.237687 38.7175732 220.38758 0 226.316916 0 230.743041 27.0606695 230.826552 27.0606695 235.252677 0 241.182013 0"></polygon>
                        <polygon id="Path" points="261.72591 0 278.344754 0 278.344754 5.24560669 267.237687 5.24560669 267.237687 16.6527197 276.841542 16.6527197 276.841542 21.8983264 267.237687 21.8983264 267.237687 33.3054393 278.261242 33.3054393 278.261242 38.8841004 261.642398 38.8841004 261.642398 0"></polygon>
                    </g>
                    <path d="M53.6980728,109.491632 C53.6980728,114.320921 49.856531,118.4841 44.8458244,118.4841 C40.5867238,118.4841 35.6595289,116.40251 35.6595289,109.325105 L35.6595289,88.0096234 C35.6595289,82.9305439 39.3340471,79.1004184 44.6788009,79.1004184 C49.7730193,79.1004184 53.614561,82.9305439 53.614561,88.3426778 L53.614561,90.5075314 L48.0192719,90.5075314 L48.0192719,88.6757322 C48.0192719,86.5108787 46.6830835,84.6790795 44.5952891,84.6790795 C41.8394004,84.6790795 41.1713062,86.5941423 41.1713062,89.1753138 L41.1713062,108.99205 C41.1713062,111.240167 42.006424,112.988703 44.5117773,112.988703 C46.0149893,112.988703 48.0192719,112.072803 48.0192719,109.075314 L48.0192719,107.160251 L53.614561,107.160251 L53.6980728,109.491632 L53.6980728,109.491632 Z" id="Path" fill-rule="nonzero"></path>
                    <path d="M74.0749465,88.509205 C74.0749465,82.1811715 78.9186296,79.0171548 83.4282655,79.0171548 C87.9379015,79.0171548 92.7815846,82.1811715 92.7815846,88.509205 L92.7815846,108.99205 C92.7815846,115.320084 87.9379015,118.4841 83.4282655,118.4841 C78.9186296,118.4841 74.0749465,115.320084 74.0749465,108.99205 L74.0749465,88.509205 Z M79.5867238,108.99205 C79.5867238,111.656485 81.3404711,112.905439 83.3447537,112.905439 C85.3490364,112.905439 87.1027837,111.656485 87.1027837,108.99205 L87.1027837,88.509205 C87.1027837,85.8447699 85.3490364,84.5958159 83.3447537,84.5958159 C81.3404711,84.5958159 79.5867238,85.8447699 79.5867238,88.509205 L79.5867238,108.99205 Z" id="Shape" fill-rule="nonzero"></path>
                    <g id="Group" transform="translate(111.070664, 78.267782)" fill-rule="nonzero" opacity="0.2">
                        <polygon id="Path" points="0.334047109 1.16569038 5.92933619 1.16569038 5.92933619 34.3878661 16.9528908 34.3878661 16.9528908 39.9665272 0.334047109 39.9665272 0.334047109 1.16569038"></polygon>
                        <polygon id="Path" points="40.8372591 1.16569038 46.4325482 1.16569038 46.4325482 34.3878661 57.4561028 34.3878661 57.4561028 39.9665272 40.8372591 39.9665272 40.8372591 1.16569038"></polygon>
                        <polygon id="Path" points="77.4154176 1.16569038 94.0342612 1.16569038 94.0342612 6.41129707 83.0107066 6.41129707 83.0107066 17.81841 92.614561 17.81841 92.614561 23.0640167 83.0107066 23.0640167 83.0107066 34.4711297 94.0342612 34.4711297 94.0342612 40.0497908 77.4154176 40.0497908"></polygon>
                        <path d="M131.531049,31.2238494 C131.531049,36.0531381 127.689507,40.216318 122.678801,40.216318 C118.4197,40.216318 113.492505,38.134728 113.492505,31.0573222 L113.492505,9.741841 C113.492505,4.66276151 117.167024,0.832635983 122.595289,0.832635983 C127.689507,0.832635983 131.531049,4.66276151 131.531049,10.0748954 L131.531049,12.239749 L125.93576,12.239749 L125.93576,10.4079498 C125.93576,8.24309623 124.599572,6.41129707 122.511777,6.41129707 C119.755889,6.41129707 119.087794,8.32635983 119.087794,10.9075314 L119.087794,30.7242678 C119.087794,32.9723849 119.922912,34.7209205 122.428266,34.7209205 C123.931478,34.7209205 125.93576,33.8050209 125.93576,30.8075314 L125.93576,28.8924686 L131.531049,28.8924686 L131.531049,31.2238494 L131.531049,31.2238494 Z" id="Path"></path>
                        <polygon id="Path" points="155.331906 6.32803347 148.901499 6.32803347 148.901499 1.08242678 167.357602 1.08242678 167.357602 6.32803347 160.927195 6.32803347 160.927195 39.8832636 155.331906 39.8832636"></polygon>
                        <polygon id="Path" points="192.578158 1.16569038 198.173448 1.16569038 198.173448 39.8832636 192.578158 39.8832636"></polygon>
                        <path d="M222.475375,10.2414226 C222.475375,3.91338912 227.319058,0.749372385 231.828694,0.749372385 C236.33833,0.749372385 241.182013,3.91338912 241.182013,10.2414226 L241.182013,30.7242678 C241.182013,37.0523013 236.33833,40.216318 231.828694,40.216318 C227.319058,40.216318 222.475375,37.0523013 222.475375,30.7242678 L222.475375,10.2414226 Z M228.070664,30.7242678 C228.070664,33.3887029 229.824411,34.6376569 231.828694,34.6376569 C233.832976,34.6376569 235.586724,33.3887029 235.586724,30.7242678 L235.586724,10.2414226 C235.586724,7.57698745 233.832976,6.32803347 231.828694,6.32803347 C229.824411,6.32803347 228.070664,7.57698745 228.070664,10.2414226 L228.070664,30.7242678 Z" id="Shape"></path>
                        <polygon id="Path" points="258.88651 1.16569038 264.231263 1.16569038 272.665953 24.4794979 272.749465 24.4794979 272.749465 1.16569038 278.344754 1.16569038 278.344754 39.8832636 273.083512 39.8832636 264.56531 16.5694561 264.481799 16.5694561 264.481799 39.8832636 258.88651 39.8832636"></polygon>
                    </g>
                    <g id="Group" transform="translate(0.000000, 149.041841)" fill-rule="nonzero">
                        <path d="M18.0385439,39.8832636 C18.0385439,44.7125523 14.1970021,48.8757322 9.1862955,48.8757322 C4.92719486,48.8757322 1.77635684e-15,46.7941423 1.77635684e-15,39.7167364 L1.77635684e-15,18.3179916 C1.77635684e-15,13.2389121 3.6745182,9.40878661 9.10278373,9.40878661 C14.1970021,9.40878661 18.0385439,13.2389121 18.0385439,18.651046 L18.0385439,20.8158996 L12.4432548,20.8158996 L12.4432548,18.9841004 C12.4432548,16.8192469 11.1070664,14.9874477 9.01927195,14.9874477 C6.2633833,14.9874477 5.59528908,16.9025105 5.59528908,19.483682 L5.59528908,39.3004184 C5.59528908,41.5485356 6.51391863,43.2970711 9.01927195,43.2970711 C10.5224839,43.2970711 12.5267666,42.3811715 12.5267666,39.383682 L12.5267666,37.4686192 L18.1220557,37.4686192 L18.1220557,39.8832636 L18.0385439,39.8832636 Z" id="Path"></path>
                        <polygon id="Path" points="37.1627409 9.741841 42.75803 9.741841 42.75803 42.9640167 53.7815846 42.9640167 53.7815846 48.5426778 37.1627409 48.5426778"></polygon>
                        <polygon id="Path" points="80.5888651 9.741841 86.1841542 9.741841 86.1841542 48.4594142 80.5888651 48.4594142"></polygon>
                        <path d="M111.404711,18.9008368 C111.404711,12.5728033 116.248394,9.40878661 120.75803,9.40878661 C125.267666,9.40878661 130.111349,12.5728033 130.111349,18.9008368 L130.111349,39.383682 C130.111349,40.8824268 129.860814,42.2146444 129.276231,43.3803347 L132.700214,46.1280335 L129.860814,49.541841 L126.603854,46.8774059 C124.933619,48.2096234 122.845824,48.8757322 120.75803,48.8757322 C116.248394,48.8757322 111.404711,45.7117155 111.404711,39.383682 L111.404711,18.9008368 L111.404711,18.9008368 Z M117,39.383682 C117,42.0481172 118.753747,43.2970711 120.75803,43.2970711 C121.175589,43.2970711 121.593148,43.2138075 121.927195,43.0472803 L119.421842,41.048954 L122.261242,37.6351464 L124.51606,39.383682 L124.51606,39.3004184 L124.51606,18.8175732 C124.51606,16.1531381 122.762313,14.9041841 120.75803,14.9041841 C118.753747,14.9041841 117,16.1531381 117,18.8175732 L117,39.383682 Z" id="Shape"></path>
                        <path d="M169.946467,39.8 C169.946467,44.8790795 165.937901,48.8757322 160.927195,48.8757322 C155.916488,48.8757322 151.907923,44.8790795 151.907923,39.8 L151.907923,9.741841 L157.503212,9.741841 L157.503212,39.2171548 C157.503212,41.9648536 159.006424,43.2138075 160.927195,43.2138075 C162.847966,43.2138075 164.351178,41.88159 164.351178,39.2171548 L164.351178,9.741841 L169.946467,9.741841 L169.946467,39.8 L169.946467,39.8 Z" id="Path"></path>
                        <path d="M188.486081,9.741841 L205.104925,9.741841 L205.104925,14.9874477 L194.08137,14.9874477 L194.08137,26.3945607 L203.685225,26.3945607 L203.685225,31.6401674 L194.08137,31.6401674 L194.08137,43.0472803 L205.104925,43.0472803 L205.104925,48.6259414 L188.486081,48.6259414 L188.486081,9.741841 Z M197.922912,0.333054393 L203.852248,0.333054393 L196.670236,7.99330544 L193.079229,7.99330544 L197.922912,0.333054393 Z" id="Shape"></path>
                    </g>
                    <rect id="Rectangle" fill-rule="nonzero" x="111.404711" y="16.4861925" width="276.507495" height="5.32887029"></rect>
                    <rect id="Rectangle" fill-rule="nonzero" x="111.404711" y="95.9196653" width="277.927195" height="5.32887029"></rect>
                    <rect id="Rectangle" fill-rule="nonzero" x="223.895075" y="175.85272" width="165.436831" height="5.32887029"></rect>
                </g>
            </g>
        </g>
    </g>
</svg>